<svg width="1472" height="832" viewBox="0 0 1472 832" fill="none" xmlns="http://www.w3.org/2000/svg">
<g clip-path="url(#clip0_85_67)">
<rect width="1472" height="832" fill="url(#paint0_linear_85_67)"/>
<g filter="url(#filter0_f_85_67)">
<path d="M589.593 -15.4415H1485.85C1486.72 -15.4415 1487.41 -16.1393 1487.41 -17V-17V840.413C1487.41 845.155 1491.26 849 1496 849V849L1181.92 855.373C1178.57 855.441 1178.04 850.591 1181.33 849.934V849.934C1183.4 849.519 1184.25 847.013 1182.85 845.426L557.588 135.602C545.915 122.35 541.315 104.298 545.223 87.0762L568.476 -15.402C568.53 -15.6384 568.827 -15.7173 568.991 -15.5388V-15.5388C569.048 -15.4768 569.128 -15.4415 569.212 -15.4415H569.557H570.988H575.282H589.593Z" fill="url(#paint1_radial_85_67)"/>
</g>
</g>
<defs>
<filter id="filter0_f_85_67" x="533.858" y="-27" width="972.142" height="892.373" filterUnits="userSpaceOnUse" color-interpolation-filters="sRGB">
<feFlood flood-opacity="0" result="BackgroundImageFix"/>
<feBlend mode="normal" in="SourceGraphic" in2="BackgroundImageFix" result="shape"/>
<feGaussianBlur stdDeviation="5" result="effect1_foregroundBlur_85_67"/>
</filter>
<linearGradient id="paint0_linear_85_67" x1="166" y1="832" x2="190.5" y2="33" gradientUnits="userSpaceOnUse">
<stop offset="0.0173707" stop-color="#E95762"/>
<stop offset="0.0267519" stop-color="#E95762"/>
<stop offset="0.188229" stop-color="#E0497D" stop-opacity="0.888512"/>
<stop offset="0.360932" stop-color="#AD2C97" stop-opacity="0.84593"/>
<stop offset="0.440081" stop-color="#9F249E" stop-opacity="0.833476"/>
<stop offset="0.610462" stop-color="#8918A9" stop-opacity="0.815714"/>
<stop offset="1" stop-color="#6F1CA6" stop-opacity="0.87"/>
</linearGradient>
<radialGradient id="paint1_radial_85_67" cx="0" cy="0" r="1" gradientUnits="userSpaceOnUse" gradientTransform="translate(1293 -51.5) rotate(158.199) scale(575.19 772.299)">
<stop stop-color="#F207B4"/>
<stop offset="0.289685" stop-color="#F405A8"/>
<stop offset="0.549538" stop-color="#BD0E97"/>
<stop offset="0.865732" stop-color="#541B78"/>
<stop offset="1" stop-color="#3B1473"/>
</radialGradient>
<clipPath id="clip0_85_67">
<rect width="1472" height="832" fill="white"/>
</clipPath>
</defs>
</svg>
